<svg width="18" height="18" viewBox="0 0 18 18" fill="none" xmlns="http://www.w3.org/2000/svg">
<path d="M9.13655 0.0192871C4.36671 0.0192871 0.5 3.82487 0.5 8.51929C0.5 13.2137 4.36671 17.0193 9.13655 17.0193C13.9064 17.0193 17.7731 13.2137 17.7731 8.51929C17.7675 3.82713 13.9041 0.0247517 9.13655 0.0192871Z" fill="#E1FCFF"/>
<path d="M14.1216 5.82769L9.1952 12.4074C9.07771 12.5608 8.90251 12.6613 8.70898 12.6864C8.51544 12.7114 8.3198 12.6589 8.16601 12.5406L4.64806 9.7724C4.33762 9.5279 4.28736 9.08201 4.53578 8.77648C4.78421 8.47095 5.23726 8.42148 5.5477 8.66598L8.48125 10.9759L12.9629 4.98973C13.1099 4.77269 13.3661 4.6527 13.6299 4.67738C13.8938 4.70207 14.1224 4.86745 14.2252 5.10786C14.328 5.34827 14.2882 5.62481 14.1216 5.82769Z" fill="#1DC8DA"/>
</svg>
