<svg width="980" height="326" viewBox="0 0 980 326" fill="none" xmlns="http://www.w3.org/2000/svg">
<path d="M651.899 164C651.303 164 650.814 163.513 650.814 162.918C650.814 74.2768 578.439 2.17834 489.492 2.17834C400.545 2.17834 328.171 74.292 328.171 162.918C328.171 163.513 327.682 164 327.085 164C326.489 164 326 163.513 326 162.918C325.985 73.0886 399.322 0 489.492 0C579.662 0 653 73.0886 653 162.918C653 163.513 652.511 164 651.915 164H651.899Z" fill="#00265A"/>
<path d="M164.002 326C73.5747 326 0 252.875 0 163C0 162.406 0.490702 161.918 1.08875 161.918C1.68679 161.918 2.17749 162.406 2.17749 163C2.17749 251.686 74.7708 323.836 163.987 323.836C253.202 323.836 325.796 251.686 325.796 163C325.796 162.406 326.286 161.918 326.884 161.918C327.483 161.918 327.973 162.406 327.973 163C327.973 252.875 254.399 326 163.971 326H164.002Z" fill="#00265A"/>
<path d="M1.08875 164.082C0.490702 164.082 0 163.594 0 163V1.0821C0 0.487705 0.490702 0 1.08875 0C1.68679 0 2.17749 0.487705 2.17749 1.0821V163C2.17749 163.594 1.68679 164.082 1.08875 164.082Z" fill="#00265A"/>
<path d="M815.999 326C906.426 326 980.001 252.875 980.001 163C980.001 162.406 979.51 161.918 978.912 161.918C978.314 161.918 977.823 162.406 977.823 163C977.823 251.686 905.23 323.836 816.014 323.836C726.799 323.836 654.205 251.686 654.205 163C654.205 162.406 653.715 161.918 653.117 161.918C652.518 161.918 652.028 162.406 652.028 163C652.028 252.875 725.602 326 816.03 326H815.999Z" fill="#00265A"/>
<path d="M978.912 164.082C979.51 164.082 980.001 163.594 980.001 163V1.0821C980.001 0.487705 979.51 0 978.912 0C978.314 0 977.823 0.487705 977.823 1.0821V163C977.823 163.594 978.314 164.082 978.912 164.082Z" fill="#00265A"/>
<path d="M344.937 137.317C341.003 132.266 334.881 129 327.982 129C321.084 129 314.961 132.266 311.027 137.317H344.951H344.937Z" fill="#F2F9FF"/>
<path d="M311.014 163.637C314.948 168.688 321.071 171.954 327.969 171.954C334.867 171.954 340.99 168.688 344.924 163.637H311H311.014Z" fill="#F2F9FF"/>
<path d="M344.752 137.602C344.461 137.602 344.17 137.478 343.976 137.229C340.056 132.192 334.155 129.299 327.797 129.299C321.438 129.299 315.537 132.192 311.617 137.229C311.285 137.658 310.661 137.741 310.232 137.395C309.803 137.063 309.72 136.44 310.066 136.011C314.374 130.49 320.829 127.321 327.81 127.321C334.792 127.321 341.247 130.49 345.555 136.011C345.888 136.44 345.818 137.063 345.389 137.395C345.209 137.533 345.001 137.602 344.779 137.602H344.752Z" fill="#00265A"/>
<path d="M327.797 172.24C320.829 172.24 314.36 169.071 310.052 163.549C309.72 163.12 309.789 162.497 310.218 162.165C310.648 161.833 311.271 161.902 311.604 162.331C315.524 167.368 321.425 170.261 327.783 170.261C334.141 170.261 340.042 167.368 343.962 162.331C344.295 161.902 344.918 161.819 345.348 162.165C345.777 162.497 345.86 163.12 345.514 163.549C341.206 169.071 334.751 172.24 327.769 172.24H327.797Z" fill="#00265A"/>
<path d="M340.201 162.164C347.05 155.322 347.05 144.23 340.201 137.388C333.353 130.546 322.249 130.546 315.4 137.388C308.552 144.23 308.552 155.322 315.4 162.164C322.249 169.006 333.353 169.006 340.201 162.164Z" fill="#1DC8DA"/>
<path d="M328.351 151.025C328.032 151.025 327.713 150.901 327.464 150.666L319.596 142.806C319.111 142.321 319.111 141.532 319.596 141.048C320.081 140.564 320.87 140.564 321.355 141.048L329.223 148.908C329.708 149.393 329.708 150.181 329.223 150.666C328.974 150.915 328.655 151.025 328.337 151.025H328.351Z" fill="white"/>
<path d="M320.483 158.886C320.164 158.886 319.845 158.761 319.596 158.526C319.111 158.041 319.111 157.253 319.596 156.768L327.464 148.908C327.949 148.424 328.738 148.424 329.223 148.908C329.708 149.393 329.708 150.181 329.223 150.666L321.355 158.526C321.106 158.775 320.787 158.886 320.469 158.886H320.483Z" fill="white"/>
<path d="M335.11 151.025C334.792 151.025 334.473 150.901 334.224 150.666L326.356 142.806C325.871 142.321 325.871 141.532 326.356 141.048C326.841 140.564 327.63 140.564 328.115 141.048L335.983 148.908C336.468 149.393 336.468 150.181 335.983 150.666C335.734 150.915 335.415 151.025 335.097 151.025H335.11Z" fill="white"/>
<path d="M327.242 158.886C326.924 158.886 326.605 158.761 326.356 158.526C325.871 158.041 325.871 157.253 326.356 156.768L334.224 148.908C334.709 148.424 335.498 148.424 335.983 148.908C336.468 149.393 336.468 150.181 335.983 150.666L328.115 158.526C327.866 158.775 327.547 158.886 327.229 158.886H327.242Z" fill="white"/>
<path d="M667.33 136.299C663.396 131.248 657.273 127.983 650.375 127.983C643.477 127.983 637.354 131.248 633.42 136.299H667.344H667.33Z" fill="#F2F9FF"/>
<path d="M633.406 137.282C633.198 137.282 632.977 137.213 632.797 137.074C632.367 136.742 632.284 136.119 632.63 135.69C636.938 130.169 643.393 127 650.375 127C657.356 127 663.812 130.169 668.12 135.69C668.452 136.119 668.383 136.742 667.953 137.074C667.524 137.406 666.901 137.323 666.568 136.908C662.648 131.871 656.747 128.979 650.389 128.979C644.031 128.979 638.13 131.871 634.209 136.908C634.016 137.157 633.725 137.282 633.434 137.282H633.406Z" fill="#00265A"/>
<path d="M633.406 162.62C637.34 167.671 643.463 170.936 650.361 170.936C657.26 170.936 663.383 167.671 667.317 162.62H633.393H633.406Z" fill="#F2F9FF"/>
<path d="M650.375 171.919C643.407 171.919 636.938 168.75 632.63 163.229C632.298 162.8 632.367 162.177 632.797 161.845C633.226 161.513 633.849 161.582 634.182 162.011C638.102 167.048 644.003 169.94 650.361 169.94C656.719 169.94 662.62 167.048 666.54 162.011C666.873 161.582 667.496 161.499 667.926 161.845C668.355 162.177 668.438 162.8 668.092 163.229C663.784 168.75 657.329 171.919 650.347 171.919H650.375Z" fill="#00265A"/>
<path d="M667.332 153.792C669.739 144.42 664.085 134.873 654.703 132.469C645.322 130.064 635.765 135.712 633.358 145.084C630.951 154.456 636.605 164.003 645.987 166.408C655.368 168.812 664.925 163.164 667.332 153.792Z" fill="#1DC8DA"/>
<path d="M650.916 150.705C650.597 150.705 650.279 150.58 650.029 150.345L642.161 142.485C641.677 142.001 641.677 141.212 642.161 140.728C642.646 140.243 643.436 140.243 643.921 140.728L651.789 148.588C652.274 149.072 652.274 149.861 651.789 150.345C651.539 150.594 651.221 150.705 650.902 150.705H650.916Z" fill="white"/>
<path d="M643.062 158.565C642.743 158.565 642.424 158.44 642.175 158.205C641.69 157.721 641.69 156.932 642.175 156.448L650.043 148.588C650.528 148.103 651.318 148.103 651.802 148.588C652.287 149.072 652.287 149.861 651.802 150.345L643.934 158.205C643.685 158.454 643.366 158.565 643.048 158.565H643.062Z" fill="white"/>
<path d="M657.676 150.705C657.357 150.705 657.039 150.58 656.789 150.345L648.921 142.485C648.436 142.001 648.436 141.212 648.921 140.728C649.406 140.243 650.196 140.243 650.68 140.728L658.548 148.588C659.033 149.072 659.033 149.861 658.548 150.345C658.299 150.594 657.981 150.705 657.662 150.705H657.676Z" fill="white"/>
<path d="M649.821 158.565C649.503 158.565 649.184 158.44 648.935 158.205C648.45 157.721 648.45 156.932 648.935 156.448L656.803 148.588C657.288 148.103 658.077 148.103 658.562 148.588C659.047 149.072 659.047 149.861 658.562 150.345L650.694 158.205C650.445 158.454 650.126 158.565 649.808 158.565H649.821Z" fill="white"/>
</svg>
