<svg width="27" height="20" viewBox="0 0 27 20" fill="none" xmlns="http://www.w3.org/2000/svg">
<ellipse cx="4.41831" cy="9.96593" rx="2.74668" ry="3.44404" transform="rotate(-14.0023 4.41831 9.96593)" fill="#1DC8DA"/>
<ellipse cx="2.74668" cy="3.44404" rx="2.74668" ry="3.44404" transform="matrix(-0.970286 -0.24196 -0.24196 0.970286 26.0801 7.28882)" fill="#1DC8DA"/>
<ellipse cx="9.72371" cy="4.365" rx="3.1061" ry="4.30462" transform="rotate(-1.13151 9.72371 4.365)" fill="#1DC8DA"/>
<ellipse cx="3.1061" cy="4.30462" rx="3.1061" ry="4.30462" transform="matrix(-0.999805 -0.0197473 -0.0197473 0.999805 20.4668 0.122559)" fill="#1DC8DA"/>
<path d="M20.2647 16.8234C20.2647 18.3515 18.8626 19.7117 17.52 19.9134C16.3636 20.0871 15.4697 19.5701 13.398 19.5701C10.6533 19.5701 6.75698 21.6042 6.75684 16.8234C6.75674 13.7684 9.98484 9.27002 13.398 9.27002C16.8111 9.27002 20.2647 13.9791 20.2647 16.8234Z" fill="#1DC8DA"/>
</svg>
