<svg width="13" height="17" viewBox="0 0 13 17" fill="none" xmlns="http://www.w3.org/2000/svg">
<path d="M5.3907 16.657C0.843959 9.66314 0 8.94535 0 6.375C0 2.85417 2.68993 0 6.00816 0C9.32638 0 12.0163 2.85417 12.0163 6.375C12.0163 8.94535 11.1724 9.66314 6.62562 16.657C6.32725 17.1143 5.68904 17.1143 5.3907 16.657ZM6.00816 9.03125C7.39076 9.03125 8.51156 7.84201 8.51156 6.375C8.51156 4.90799 7.39076 3.71875 6.00816 3.71875C4.62556 3.71875 3.50476 4.90799 3.50476 6.375C3.50476 7.84201 4.62556 9.03125 6.00816 9.03125Z" fill="#444444"/>
</svg>
