<svg width="13" height="15" viewBox="0 0 13 15" fill="none" xmlns="http://www.w3.org/2000/svg">
<path d="M12.1075 10.5995L9.38118 9.19326C9.26471 9.13352 9.13527 9.12093 9.01235 9.15739C8.88942 9.19385 8.77967 9.27738 8.6996 9.39541L7.49223 11.1708C5.59739 10.0956 4.07247 8.26021 3.17907 5.97963L4.6542 4.52647C4.75246 4.43028 4.82201 4.29818 4.85232 4.15016C4.88262 4.00215 4.87203 3.84628 4.82216 3.70615L3.65374 0.42484C3.599 0.273785 3.50218 0.150453 3.37998 0.0761123C3.25778 0.00177107 3.11785 -0.0189204 2.98433 0.0176058L0.452762 0.720743C0.324034 0.756521 0.209182 0.843757 0.126952 0.968214C0.0447224 1.09267 -2.96537e-05 1.247 1.4742e-08 1.40601C1.4742e-08 8.92079 5.06071 15 11.2947 15C11.4269 15.0001 11.5551 14.9463 11.6586 14.8473C11.7621 14.7483 11.8346 14.6101 11.8643 14.4551L12.4485 11.4081C12.4787 11.2467 12.4611 11.0776 12.3989 10.93C12.3366 10.7824 12.2336 10.6656 12.1075 10.5995Z" fill="#444444"/>
</svg>
