<svg width="19" height="19" viewBox="0 0 19 19" fill="none" xmlns="http://www.w3.org/2000/svg">
<path d="M18.7982 13.2166C18.7259 13.2223 18.6967 13.2834 18.6564 13.3239C17.851 14.1315 16.9277 14.7708 15.8885 15.2305C13.3609 16.3481 10.7874 16.429 8.18134 15.5277C7.9426 15.4451 7.71043 15.4364 7.4758 15.4967C7.13145 15.5854 6.78998 15.687 6.44974 15.7918C5.44094 16.1017 4.41982 16.2441 3.37034 16.0369C3.2976 16.006 3.24254 15.9668 3.33048 15.8941C3.38307 15.8508 3.44307 15.8161 3.50019 15.779C4.03684 15.429 4.54186 15.0436 4.87511 14.479C5.1533 14.0073 5.10892 13.7324 4.76211 13.3837C2.81601 11.4267 1.95802 9.08549 2.38619 6.3225C2.62781 4.76169 3.33993 3.41424 4.37297 2.24219C4.99674 1.53442 5.74091 0.959947 6.55453 0.480396C6.6026 0.45192 6.67533 0.444904 6.68396 0.371032C6.68314 0.368556 6.68191 0.366492 6.68068 0.364429C6.67985 0.362365 6.67903 0.360715 6.6778 0.359476C6.6778 0.359476 6.67766 0.359201 6.67739 0.358651C6.67575 0.355762 6.67328 0.353286 6.67081 0.351223C6.66958 0.349985 6.66835 0.349159 6.66712 0.348334C6.65109 0.337191 6.62972 0.342969 6.61246 0.342969C5.22891 0.342969 3.84494 0.316144 2.46262 0.351635C2.44208 0.352048 2.42153 0.352873 2.40098 0.354111C2.3866 0.354524 2.37222 0.35535 2.35825 0.356588C2.3488 0.357 2.33935 0.357826 2.3299 0.358651H2.32784C2.32414 0.359064 2.32044 0.359064 2.31675 0.359889C2.29497 0.36154 2.27319 0.363191 2.25182 0.365667C2.24032 0.366905 2.22922 0.368143 2.21772 0.369381C2.20046 0.37227 2.18361 0.374333 2.16676 0.376397C2.14334 0.379286 2.12033 0.383 2.09732 0.387127C2.07718 0.390429 2.05746 0.39373 2.03773 0.397857C2.02253 0.400746 2.00774 0.403635 1.99294 0.406936C1.97815 0.409825 1.96377 0.413127 1.94898 0.416841C1.93254 0.420143 1.91651 0.423857 1.90008 0.428396C1.88282 0.432523 1.86515 0.437063 1.84789 0.442015C1.77886 0.460587 1.71023 0.482459 1.64325 0.506808C1.62682 0.512999 1.60997 0.519189 1.59312 0.525792C1.54833 0.543126 1.50395 0.561697 1.4604 0.581919C1.44643 0.588109 1.43245 0.5943 1.41889 0.601315C1.4078 0.606268 1.39712 0.61122 1.38684 0.616998C1.37451 0.622776 1.3626 0.628966 1.35027 0.635156C1.3326 0.644236 1.31493 0.653728 1.29726 0.66322C1.2685 0.678902 1.23973 0.694997 1.21179 0.711918C1.20563 0.715632 1.19946 0.719346 1.1933 0.72306C1.17276 0.735441 1.15221 0.748235 1.13207 0.761854C1.07742 0.79652 1.024 0.834075 0.972639 0.874107C0.962366 0.881535 0.952093 0.889376 0.942231 0.89763C0.930314 0.906709 0.918809 0.916201 0.907303 0.925693C0.866212 0.959122 0.826353 0.993788 0.787316 1.03052C0.779097 1.03836 0.770468 1.0462 0.76225 1.05445C0.743348 1.07261 0.724445 1.09118 0.705954 1.11017C0.64596 1.17083 0.589254 1.23521 0.536246 1.3029C0.52474 1.31734 0.513234 1.3322 0.50214 1.34705C0.494743 1.35655 0.487347 1.36686 0.47995 1.37677C0.469266 1.39121 0.458583 1.40607 0.44831 1.42134C0.422422 1.45807 0.397356 1.49604 0.373934 1.53483C0.365716 1.54762 0.357908 1.56042 0.350512 1.57362C0.338595 1.59302 0.327089 1.61242 0.316406 1.63264C0.310242 1.64337 0.304489 1.65451 0.298736 1.66524C0.264219 1.72921 0.232579 1.79524 0.203814 1.86334C0.196418 1.88026 0.189432 1.89718 0.182858 1.91451C0.175872 1.93184 0.169298 1.94918 0.162723 1.96651C0.15697 1.98137 0.151628 1.99622 0.146697 2.01149C0.137657 2.03543 0.129439 2.06019 0.122042 2.08495C0.117522 2.09857 0.113413 2.11219 0.109304 2.12622C0.103962 2.14438 0.0986199 2.16254 0.0936889 2.1807C0.0887579 2.19886 0.0838269 2.21743 0.0793068 2.236C0.0698558 2.27273 0.0612265 2.31028 0.05383 2.34825C0.0513645 2.36022 0.048899 2.37219 0.0468445 2.38457C0.0427353 2.40438 0.039037 2.4246 0.0361606 2.44482C0.0349279 2.45019 0.0341061 2.45596 0.0332842 2.46174C0.029586 2.48403 0.0267096 2.50631 0.0238331 2.5286C0.0217786 2.54552 0.019724 2.56244 0.0176694 2.57977C0.0143821 2.60701 0.0119166 2.63425 0.00986199 2.66231C0.00821833 2.68006 0.00698558 2.69822 0.00616375 2.71638C0.004931 2.73082 0.00410916 2.74526 0.00369825 2.76012C0.00287642 2.78158 0.00205458 2.80263 0.00164367 2.82409C0.000821833 2.84514 0.000821832 2.86701 0.000821832 2.88888C0.00945107 7.19452 0.000821833 11.4998 0 15.8054C0 15.8335 0.000410917 15.8611 0.00164367 15.8888C0.00164367 15.9065 0.00287642 15.9238 0.00369825 15.9412C0.004931 15.9651 0.00616374 15.9886 0.00821832 16.0122C0.0102729 16.039 0.0127384 16.0654 0.0160257 16.0922C0.0164367 16.0976 0.0168476 16.1029 0.0176694 16.1083V16.11C0.0213676 16.1413 0.0258877 16.1731 0.0308187 16.2041C0.0332842 16.2214 0.0361606 16.2387 0.039037 16.2561C0.0398589 16.2606 0.0406807 16.2651 0.0415025 16.2693C0.0456117 16.2911 0.0497209 16.3126 0.0542409 16.3345C0.0595829 16.3605 0.0653357 16.3865 0.0714994 16.4121C0.0772523 16.436 0.083416 16.4599 0.0899907 16.4835C0.0957435 16.5045 0.101907 16.526 0.108071 16.547C0.109715 16.5528 0.111358 16.5586 0.113413 16.5639C0.116289 16.5742 0.119577 16.585 0.123275 16.5957C0.126562 16.6064 0.12985 16.6168 0.133548 16.6271C0.141355 16.6506 0.149574 16.6741 0.158203 16.6976C0.167243 16.7224 0.177105 16.7476 0.186967 16.7719C0.196829 16.7967 0.207102 16.821 0.217786 16.845C0.234633 16.8838 0.252714 16.9221 0.272027 16.9601C0.276136 16.9684 0.280656 16.9766 0.284765 16.9849C0.293805 17.0026 0.303256 17.0204 0.312707 17.0377C0.322569 17.0559 0.332431 17.074 0.343115 17.0918C0.352977 17.1091 0.363661 17.1264 0.373934 17.1438C0.384618 17.1611 0.395301 17.1784 0.406396 17.1954C0.415436 17.209 0.424477 17.223 0.433517 17.2366C0.447488 17.2573 0.461459 17.2775 0.475841 17.2977C0.490223 17.3179 0.505016 17.3377 0.519809 17.3571C0.529671 17.3699 0.539944 17.3831 0.550217 17.3959C0.560079 17.4087 0.570352 17.4215 0.581036 17.4343C0.595829 17.452 0.610622 17.4698 0.625826 17.4871C0.635688 17.4987 0.64596 17.5098 0.655822 17.521C0.667739 17.5338 0.679656 17.5466 0.691572 17.5593C0.705132 17.5738 0.718693 17.5878 0.732664 17.6019C0.746635 17.6155 0.760606 17.6291 0.774577 17.6427C0.786905 17.6547 0.799232 17.6662 0.811971 17.6778C0.824298 17.6893 0.837036 17.7009 0.849364 17.712C0.858404 17.7203 0.867444 17.7281 0.876484 17.7356C0.885525 17.7434 0.894565 17.7512 0.904016 17.7587C0.917576 17.7702 0.931136 17.7814 0.944697 17.7917C0.954558 17.7999 0.964831 17.8078 0.975104 17.8156C0.984966 17.8239 0.994828 17.8313 1.0051 17.8387C1.024 17.8528 1.04332 17.8668 1.06263 17.8804C1.07701 17.8903 1.0918 17.9006 1.10619 17.9101C1.11235 17.9147 1.11851 17.9188 1.12468 17.9225C1.15303 17.9411 1.1818 17.9592 1.21056 17.9766C1.26603 18.0092 1.32274 18.0401 1.38068 18.069C1.40985 18.0835 1.43944 18.0971 1.46944 18.1103C1.48711 18.1185 1.50519 18.126 1.52327 18.1334C1.54628 18.1429 1.56929 18.152 1.5923 18.1606C1.61161 18.1681 1.63175 18.1751 1.65147 18.1821C1.67366 18.1899 1.69585 18.1974 1.71804 18.204C1.74722 18.2131 1.77639 18.2217 1.80598 18.23C1.82529 18.2349 1.8446 18.2399 1.86433 18.2448C1.88405 18.2498 1.90378 18.2543 1.92391 18.2585C1.94158 18.2626 1.95966 18.2663 1.97774 18.2696C1.99746 18.2737 2.01719 18.277 2.03732 18.2803C2.09033 18.2894 2.14416 18.2964 2.1984 18.3018C2.2132 18.3034 2.2284 18.3047 2.24319 18.3055C2.27607 18.3084 2.30894 18.3105 2.34222 18.3117C3.4632 18.3558 4.58747 18.3187 5.7105 18.3175C5.79228 18.3199 5.87446 18.3249 5.95623 18.3249C7.93562 18.3253 9.91459 18.3253 11.8936 18.3253C13.3729 18.3253 14.8522 18.3315 16.3315 18.3232C16.373 18.3228 16.4145 18.322 16.4556 18.3195C16.465 18.3191 16.474 18.3183 16.4835 18.3179C16.4975 18.3171 16.5114 18.3162 16.525 18.315C16.5468 18.3133 16.5686 18.3113 16.5903 18.3088C16.6035 18.3076 16.617 18.3059 16.6302 18.3043C16.6438 18.3026 16.6573 18.301 16.6705 18.2989C16.7 18.2952 16.7292 18.2906 16.7584 18.2853C16.7851 18.2807 16.8114 18.2758 16.8377 18.2704C16.8784 18.2618 16.9187 18.2523 16.9585 18.2419C16.9725 18.2382 16.9869 18.2345 17.0004 18.2308C17.0013 18.2308 17.0021 18.2308 17.0029 18.23C17.0033 18.23 17.0037 18.2296 17.0037 18.2296C17.0197 18.225 17.0362 18.2205 17.0522 18.2155C17.067 18.211 17.0822 18.2065 17.097 18.2015C17.1258 18.1924 17.1541 18.1825 17.1825 18.1722C17.1985 18.1664 17.2145 18.1602 17.2305 18.154C17.249 18.147 17.2671 18.1396 17.2852 18.1322C17.3033 18.1247 17.3214 18.1169 17.3394 18.1086C17.3534 18.1029 17.367 18.0967 17.3805 18.0901C17.4109 18.076 17.4409 18.0616 17.4705 18.0463C17.4923 18.0348 17.5141 18.0232 17.5354 18.0112C17.5617 17.9968 17.5876 17.9819 17.6131 17.9663C17.6353 17.9531 17.6571 17.9394 17.6784 17.9254C17.6904 17.918 17.7023 17.9101 17.7142 17.9019C17.7236 17.8957 17.7331 17.8891 17.7425 17.8825C17.7951 17.8466 17.8457 17.8082 17.895 17.7682C17.9061 17.7591 17.9172 17.7496 17.9283 17.7405C17.9628 17.7116 17.9965 17.6815 18.0294 17.6501C18.0425 17.6382 18.0553 17.6262 18.0676 17.6134C18.1165 17.5655 18.1637 17.5156 18.2081 17.4636C18.2237 17.4454 18.2389 17.4273 18.2541 17.4087C18.2673 17.3926 18.2804 17.3761 18.2928 17.3596C18.3043 17.3452 18.3154 17.3303 18.3265 17.3154C18.3384 17.2989 18.3503 17.2824 18.3622 17.2655C18.3737 17.2494 18.3848 17.2329 18.3959 17.216C18.4699 17.1046 18.5352 16.9869 18.5907 16.8635C18.5956 16.8528 18.6005 16.8421 18.6051 16.8314C18.6133 16.8128 18.6211 16.7942 18.6285 16.7756C18.6367 16.7554 18.6445 16.7356 18.6523 16.7154C18.6531 16.7133 18.654 16.7108 18.6544 16.7088C18.6626 16.6873 18.6704 16.6659 18.6778 16.644C18.6823 16.6308 18.6868 16.618 18.6909 16.6048C18.6987 16.5808 18.7061 16.5565 18.7131 16.5322C18.7176 16.5181 18.7218 16.5037 18.7255 16.4888C18.7292 16.4756 18.7329 16.4624 18.7361 16.4488C18.7398 16.4356 18.7431 16.4224 18.746 16.4088C18.7624 16.3398 18.776 16.2697 18.7867 16.1987C18.7928 16.1591 18.7978 16.1186 18.8019 16.0786C18.8035 16.065 18.8048 16.0509 18.8056 16.0373C18.8072 16.0216 18.8085 16.0056 18.8093 15.9899C18.8138 15.9309 18.8159 15.871 18.8159 15.8108C18.8167 15.006 18.8167 14.2013 18.815 13.3965C18.815 13.3379 18.8348 13.2752 18.7982 13.2166ZM8.66294 9.48498C8.63253 9.22704 8.45666 9.08755 8.13039 9.08508C7.55018 9.08012 6.96996 9.08343 6.34825 9.08343C6.41646 8.99387 6.45632 8.93898 6.49823 8.88575C7.03653 8.20026 7.57565 7.51519 8.11272 6.82846C8.26928 6.62872 8.42625 6.42691 8.52446 6.19003C8.63746 5.91765 8.51501 5.66054 8.23723 5.56397C8.11149 5.52063 7.98123 5.51733 7.85179 5.51651C7.11912 5.51444 6.38646 5.51403 5.6538 5.51692C5.55189 5.51692 5.44669 5.52724 5.34972 5.55448C5.14344 5.61308 5.02181 5.78104 5.02345 5.97914C5.0251 6.17723 5.15042 6.34313 5.35712 6.39761C5.45491 6.42361 5.5597 6.43145 5.6616 6.43228C6.10663 6.43599 6.55165 6.43269 6.99667 6.43558C7.04475 6.43599 7.10597 6.40421 7.14501 6.47478C7.10844 6.52307 7.07187 6.57218 7.03406 6.62005C6.3992 7.43058 5.76351 8.2407 5.12865 9.05124C4.97127 9.25304 4.89155 9.47507 5.00578 9.72228C5.12002 9.96948 5.35301 10.0165 5.59134 10.0306C5.78241 10.0417 5.97472 10.0347 6.16621 10.0347C6.83066 10.0347 7.4947 10.0396 8.15915 10.0318C8.5109 10.0281 8.70074 9.81142 8.66294 9.48498ZM12.1167 7.10538C12.1122 6.77564 11.806 6.56475 11.4835 6.63078C11.3142 6.66545 11.2147 6.78472 11.1149 6.91142C10.6021 6.46199 10.0354 6.43434 9.47819 6.76326C8.80635 7.15986 8.55692 7.80655 8.64198 8.56013C8.7217 9.2613 9.0229 9.83412 9.75474 10.0727C10.2109 10.2212 10.6329 10.168 11.0072 9.86342C11.1038 9.78459 11.1334 9.79945 11.2028 9.88736C11.3442 10.0669 11.5648 10.1197 11.7769 10.0471C11.979 9.97815 12.1171 9.80564 12.1187 9.58031C12.1233 8.75533 12.1274 7.92994 12.1167 7.10538ZM10.9127 8.91794C10.6468 9.27781 10.1011 9.27904 9.83528 8.91876C9.71283 8.75286 9.66598 8.56219 9.66229 8.42023C9.65777 7.83668 9.97294 7.48671 10.4237 7.51354C10.6267 7.5255 10.7894 7.61176 10.9111 7.77642C11.1416 8.08801 11.1428 8.60594 10.9127 8.91794ZM17.4528 8.26547C17.4216 7.23538 16.6544 6.52885 15.6082 6.56104C14.6237 6.59158 13.9313 7.38313 13.9625 8.44292C13.9473 9.47342 14.7979 10.2547 15.8651 10.1469C16.8476 10.0483 17.4849 9.30834 17.4528 8.26547ZM16.2361 8.93032C15.9711 9.27615 15.4307 9.27327 15.171 8.92248C15.0445 8.75162 14.9947 8.55435 14.996 8.34346C14.9976 7.83049 15.3075 7.4896 15.7512 7.51312C15.9538 7.52385 16.117 7.60846 16.2402 7.77312C16.4761 8.08842 16.4749 8.61832 16.2361 8.93032ZM13.6026 7.62249C13.6026 6.97621 13.6054 6.32993 13.6013 5.68365C13.5997 5.35514 13.3901 5.1488 13.0778 5.15169C12.7758 5.15457 12.5744 5.36051 12.5691 5.67787C12.5658 5.87019 12.5683 6.06292 12.5683 6.25523C12.5683 7.34846 12.5675 8.44169 12.5691 9.5345C12.5695 9.79202 12.7244 10.0132 12.9319 10.0656C13.2775 10.1535 13.5989 9.90634 13.6013 9.54028C13.6058 8.90102 13.6026 8.26175 13.6026 7.62249Z" fill="#444444"/>
<path d="M5.7105 18.3175C4.58747 18.3187 3.4632 18.3558 2.34222 18.3117C1.01455 18.2597 0 17.1405 0 15.8054C0.000821833 11.4998 0.00945107 7.19452 0.000821832 2.88888C-0.00205458 1.4135 1.14276 0.385889 2.46262 0.351635C3.84494 0.316144 5.22891 0.342969 6.61246 0.342969C6.63671 0.342969 6.66835 0.331001 6.68438 0.371032C6.67575 0.444492 6.6026 0.45192 6.55453 0.479983C5.74091 0.959534 4.99674 1.53401 4.37297 2.24178C3.33993 3.41383 2.62781 4.76128 2.38619 6.3225C1.95802 9.08549 2.81601 11.4267 4.76252 13.3837C5.10892 13.732 5.15371 14.0073 4.87552 14.479C4.54268 15.0436 4.03725 15.429 3.50101 15.7786C3.44348 15.8161 3.3839 15.8504 3.3313 15.8937C3.24336 15.9663 3.29842 16.0056 3.37116 16.0365C3.39129 16.0712 3.40403 16.1141 3.43238 16.1393C3.90412 16.561 4.3516 17.0092 4.81594 17.438C5.03619 17.6415 5.25151 17.8491 5.4619 18.0616C5.54532 18.1458 5.68996 18.1722 5.71133 18.3166L5.7105 18.3175Z" fill="#444444"/>
<path d="M5.71126 18.3177C5.68989 18.1728 5.54525 18.1468 5.46184 18.0627C5.25145 17.8501 5.03613 17.6425 4.81588 17.4391C4.35154 17.0099 3.90405 16.5617 3.43232 16.1403C3.40397 16.1152 3.39123 16.0722 3.37109 16.0376C4.42057 16.2447 5.4417 16.1024 6.4505 15.792C6.79074 15.6876 7.13221 15.5861 7.47656 15.4969C7.71119 15.4367 7.94336 15.4453 8.1821 15.5279C10.7881 16.4296 13.3617 16.3483 15.8892 15.2307C16.9285 14.771 17.8518 14.1317 18.6572 13.3241C18.6974 13.2837 18.7266 13.2226 18.7989 13.2168C18.8359 13.2754 18.8158 13.3381 18.8158 13.3967C18.8174 14.2015 18.8174 15.0062 18.8166 15.811C18.8154 17.2043 17.7228 18.3161 16.3318 18.3239C14.8525 18.3321 13.3736 18.326 11.8943 18.326C9.91535 18.326 7.93596 18.326 5.95699 18.326C5.87481 18.326 5.79303 18.321 5.71085 18.3185L5.71126 18.3177Z" fill="#444444"/>
<path d="M6.3482 9.08341C6.96992 9.08341 7.55013 9.0797 8.13076 9.08465C8.45661 9.08754 8.6329 9.22662 8.66289 9.48455C8.7007 9.81099 8.51127 10.0277 8.15911 10.0314C7.49507 10.0388 6.83062 10.0343 6.16658 10.0343C5.97468 10.0343 5.78278 10.0409 5.59171 10.0297C5.35337 10.0161 5.12038 9.96864 5.00615 9.72144C4.89192 9.47382 4.97122 9.25179 5.12901 9.0504C5.76388 8.23987 6.39916 7.42975 7.03443 6.61921C7.07224 6.57093 7.1084 6.52182 7.14538 6.47395C7.10675 6.40338 7.04512 6.43515 6.99704 6.43474C6.55202 6.43185 6.10699 6.43474 5.66197 6.43144C5.56007 6.43061 5.45569 6.42236 5.35748 6.39677C5.15079 6.3423 5.02546 6.17639 5.02382 5.9783C5.02218 5.77979 5.14381 5.61183 5.34968 5.55364C5.44706 5.52599 5.55226 5.5165 5.65375 5.51608C6.38642 5.51319 7.11908 5.51319 7.85174 5.51608C7.98118 5.5165 8.11144 5.5198 8.23718 5.56354C8.51496 5.6597 8.63742 5.91722 8.52442 6.18919C8.42621 6.42649 8.26924 6.62788 8.11268 6.82804C7.57561 7.51476 7.03649 8.19942 6.49819 8.88532C6.45627 8.93856 6.416 8.99303 6.3482 9.083V9.08341Z" fill="#444444"/>
<path d="M12.1167 7.10541C12.1122 6.77566 11.8061 6.56478 11.4835 6.63081C11.3142 6.66547 11.2148 6.78474 11.1149 6.91144C10.6021 6.46202 10.0354 6.43436 9.47824 6.76328C8.80639 7.15988 8.55696 7.80657 8.64202 8.56015C8.72174 9.26132 9.02294 9.83414 9.75478 10.0727C10.2109 10.2213 10.6329 10.168 11.0073 9.86344C11.1038 9.78462 11.1334 9.79948 11.2029 9.88738C11.3442 10.0669 11.5649 10.1197 11.7769 10.0471C11.9791 9.97817 12.1171 9.80567 12.1188 9.58034C12.1233 8.75536 12.1274 7.92997 12.1167 7.10541ZM10.9127 8.91796C10.6469 9.27783 10.1012 9.27907 9.83532 8.91879C9.71287 8.75288 9.66603 8.56222 9.66233 8.42025C9.65781 7.8367 9.97298 7.48674 10.4238 7.51356C10.6267 7.52553 10.7895 7.61178 10.9111 7.77645C11.1416 8.08803 11.1429 8.60596 10.9127 8.91796Z" fill="#444444"/>
<path d="M17.4523 8.2653C17.421 7.23521 16.6539 6.52868 15.6077 6.56087C14.6231 6.59141 13.9307 7.38296 13.962 8.44276C13.9467 9.47326 14.7973 10.2545 15.8645 10.1468C16.847 10.0481 17.4843 9.30818 17.4523 8.2653ZM16.2356 8.93015C15.9705 9.27599 15.4302 9.2731 15.1705 8.92231C15.0439 8.75145 14.9942 8.55419 14.9954 8.3433C14.9971 7.83032 15.3069 7.48943 15.7507 7.51296C15.9533 7.52369 16.1164 7.60829 16.2397 7.77296C16.4755 8.08825 16.4743 8.61815 16.2356 8.93015Z" fill="#444444"/>
<path d="M13.6025 7.62277C13.6025 8.26204 13.6058 8.9013 13.6013 9.54098C13.5988 9.90662 13.2775 10.1538 12.9319 10.0663C12.7244 10.0139 12.5695 9.79272 12.5691 9.5352C12.5674 8.44197 12.5683 7.34916 12.5683 6.25593C12.5683 6.06361 12.5658 5.87088 12.5691 5.67857C12.5744 5.36121 12.7758 5.15527 13.0778 5.15238C13.3901 5.14908 13.5993 5.35584 13.6013 5.68435C13.6054 6.33063 13.6025 6.97691 13.6025 7.62318V7.62277Z" fill="#444444"/>
</svg>
